<svg width="109" height="92" viewBox="0 0 109 92" fill="none" xmlns="http://www.w3.org/2000/svg">
<path d="M100.311 11.0495C100.635 11.4162 101.195 11.451 101.561 11.1272L103.585 9.34047C103.951 9.01672 103.986 8.45705 103.662 8.09039C103.339 7.72367 102.779 7.6889 102.412 8.01265L100.389 9.79942C100.223 9.94655 100.124 10.1422 100.097 10.3467C100.065 10.5919 100.135 10.8496 100.311 11.0495Z" fill="url(#paint0_linear_2907_54)"/>
<path d="M108.339 20.4916C108.363 20.0032 107.986 19.5875 107.498 19.5632L104.802 19.4299C104.313 19.4058 103.897 19.7822 103.873 20.2709C103.86 20.5375 103.966 20.7821 104.145 20.9536C104.293 21.0963 104.492 21.1881 104.714 21.199L107.41 21.3323C107.899 21.3567 108.315 20.9803 108.339 20.4916Z" fill="url(#paint1_linear_2907_54)"/>
<path d="M90.4294 5.67842C90.4026 5.89911 90.4594 6.11044 90.5748 6.28127C90.7134 6.48637 90.9367 6.63235 91.2017 6.66441C91.6872 6.72329 92.1288 6.3776 92.1877 5.89214L92.5134 3.21242C92.5723 2.72668 92.2266 2.28531 91.7411 2.22643C91.2557 2.16755 90.814 2.51324 90.7551 2.9987L90.4294 5.67842Z" fill="url(#paint2_linear_2907_54)"/>
<path d="M78.1458 7.04983L79.8456 9.14686C79.9856 9.31941 80.1769 9.42584 80.3798 9.46149C80.6235 9.5043 80.8837 9.44527 81.0911 9.27717C81.471 8.96909 81.5295 8.41161 81.2214 8.03141L79.5216 5.93438C79.2135 5.55446 78.6557 5.49621 78.2758 5.80401C77.8959 6.1121 77.8377 6.66963 78.1458 7.04983Z" fill="url(#paint3_linear_2907_54)"/>
<path d="M92.2619 8.49268C87.0942 7.49637 82.077 10.0491 79.6897 14.4122C79.4119 14.9198 79.6893 15.5537 80.2505 15.6955C80.6438 15.7951 81.052 15.613 81.2469 15.257C83.2907 11.5248 87.6009 9.35333 92.0244 10.2511C97.3608 11.3342 100.868 16.5527 99.8646 21.9045C99.3546 24.6241 97.7794 26.8856 95.6484 28.3335C95.255 28.6006 95.1413 29.1292 95.3924 29.5331C95.6585 29.9616 96.2278 30.0799 96.6449 29.7963C99.1915 28.0661 101.063 25.3475 101.633 22.0814C102.731 15.7819 98.5412 9.70311 92.2619 8.49268Z" fill="url(#paint4_linear_2907_54)"/>
<path d="M84.7052 21.1152H23.2665C20.9129 21.1152 19 23.0281 19 25.3817V69.7546C19 72.1082 20.9129 74.0211 23.2665 74.0211H39.4781V76.5792C39.4781 77.0517 39.8598 77.4334 40.3323 77.4334H51.4232V82.554H38.6284C37.2154 82.554 36.0704 83.7035 36.0704 85.1121V90.2327C36.0704 90.7053 36.452 91.0869 36.9246 91.0869H71.0562C71.5288 91.0869 71.9104 90.7053 71.9104 90.2327V85.1121C71.9104 83.699 70.7609 82.554 69.3524 82.554H56.553V77.4334H67.644C68.1165 77.4334 68.4982 77.0517 68.4982 76.5792V74.0211H84.7098C87.0634 74.0211 88.9763 72.1082 88.9763 69.7546V25.3817C88.9717 23.0281 87.0588 21.1152 84.7052 21.1152ZM48.011 22.8236H59.9562V38.1811H48.011V22.8236ZM48.011 39.8895H59.9562V55.2469H48.011V39.8895ZM48.011 56.9553H59.9562V72.3127H48.011V56.9553ZM34.3574 22.8236H46.3026V38.1811H34.3574V22.8236ZM34.3574 39.8895H46.3026V55.2469H34.3574V39.8895ZM32.6536 72.3127H23.2665C21.8534 72.3127 20.7084 71.1632 20.7084 69.7546V56.9553H32.6536V72.3127ZM32.6536 55.2469H20.7084V39.8895H32.6536V55.2469ZM32.6536 38.1811H20.7084V25.3817C20.7084 23.9686 21.8579 22.8236 23.2665 22.8236H32.6536V38.1811ZM34.3574 72.3127V56.9553H46.3026V72.3127H34.3574ZM69.3433 84.2624C69.8113 84.2624 70.1975 84.6441 70.1975 85.1166V89.3831H37.7697V85.1166C37.7697 84.6486 38.1513 84.2624 38.6239 84.2624H69.3433ZM53.1316 82.554V77.4334H54.8401V82.554H53.1316ZM66.7852 75.7295H41.1865V74.0211H66.7852V75.7295ZM73.6143 72.3127H61.6646V56.9553H73.6097V72.3127H73.6143ZM73.6143 55.2469H61.6646V39.8895H73.6097V55.2469H73.6143ZM73.6143 38.1811H61.6646V22.8236H73.6097V38.1811H73.6143ZM87.2633 69.7546C87.2633 71.1677 86.1138 72.3127 84.7052 72.3127H75.3181V56.9553H87.2633V69.7546ZM87.2633 55.2469H75.3181V39.8895H87.2633V55.2469ZM87.2633 38.1811H75.3181V22.8236H84.7052C86.1183 22.8236 87.2633 23.9732 87.2633 25.3817V38.1811Z" fill="url(#paint5_linear_2907_54)"/>
<defs>
<linearGradient id="paint0_linear_2907_54" x1="102.323" y1="7.65856" x2="101.651" y2="11.4813" gradientUnits="userSpaceOnUse">
<stop stop-color="#3E3838"/>
<stop offset="1" stop-color="#939292"/>
</linearGradient>
<linearGradient id="paint1_linear_2907_54" x1="106.288" y1="19.3437" x2="105.924" y2="21.4186" gradientUnits="userSpaceOnUse">
<stop stop-color="#3E3838"/>
<stop offset="1" stop-color="#939292"/>
</linearGradient>
<linearGradient id="paint2_linear_2907_54" x1="91.8579" y1="2.24564" x2="91.085" y2="6.64521" gradientUnits="userSpaceOnUse">
<stop stop-color="#3E3838"/>
<stop offset="1" stop-color="#939292"/>
</linearGradient>
<linearGradient id="paint3_linear_2907_54" x1="79.99" y1="5.79608" x2="79.377" y2="9.28532" gradientUnits="userSpaceOnUse">
<stop stop-color="#3E3838"/>
<stop offset="1" stop-color="#939292"/>
</linearGradient>
<linearGradient id="paint4_linear_2907_54" x1="92.3484" y1="8.5062" x2="88.8053" y2="28.675" gradientUnits="userSpaceOnUse">
<stop stop-color="#3E3838"/>
<stop offset="1" stop-color="#939292"/>
</linearGradient>
<linearGradient id="paint5_linear_2907_54" x1="53.9881" y1="21.1152" x2="53.9881" y2="91.0869" gradientUnits="userSpaceOnUse">
<stop stop-color="#3E3838"/>
<stop offset="1" stop-color="#939292"/>
</linearGradient>
</defs>
</svg>
