<svg width="77" height="77" viewBox="0 0 77 77" fill="none" xmlns="http://www.w3.org/2000/svg">
<path d="M0.930121 43.1967C1.4451 43.1967 1.87008 42.7767 1.87008 42.2567V39.4418H30.0387V53.2412L15.4494 75.1201H12.1945C11.6796 75.1201 11.2546 75.54 11.2546 76.06C11.2546 76.575 11.6746 77 12.1945 77H23.464C23.979 77 24.404 76.58 24.404 76.06C24.404 75.545 23.984 75.1201 23.464 75.1201H19.9292L31.1986 69.4853H45.7829L57.0523 75.1201H53.5175C53.0025 75.1201 52.5775 75.54 52.5775 76.06C52.5775 76.575 52.9975 77 53.5175 77H64.7869C65.3019 77 65.7269 76.58 65.7269 76.06C65.7269 75.545 65.3069 75.1201 64.7869 75.1201H61.5321L46.9428 53.2412V39.4418H75.1114V42.2567C75.1114 42.7717 75.5314 43.1967 76.0514 43.1967C76.5664 43.1967 76.9913 42.7767 76.9913 42.2567V38.5019C76.9913 38.1769 76.8013 37.8469 76.4713 37.6619L46.9478 22.8977V16.903H63.847V19.7178C63.847 20.2328 64.267 20.6578 64.7869 20.6578C65.3019 20.6578 65.7269 20.2378 65.7269 19.7178V15.963C65.7269 15.513 65.4219 15.2131 65.1369 15.0881L46.5378 7.64843L39.1632 0.273797C38.7982 -0.0911844 38.2033 -0.0911844 37.8333 0.273797L30.4586 7.64843L11.8546 15.0881C11.5646 15.2131 11.2646 15.508 11.2646 15.963V19.7178C11.2646 20.2328 11.6846 20.6578 12.2046 20.6578C12.7195 20.6578 13.1445 20.2378 13.1445 19.7178V16.903H30.0487V22.8977L0.520138 37.6619C0.190154 37.8469 0.000174935 38.1769 0.000174935 38.5019V42.2567C-0.00982457 42.7767 0.410147 43.1967 0.930121 43.1967ZM46.9378 9.84332L59.8972 15.0281H46.9378V9.84332ZM46.9378 24.9976L72.0716 37.5619H46.9378V24.9976ZM33.2435 67.6104L38.4882 62.3657L43.733 67.6104H33.2435ZM43.733 24.4176L38.4882 29.6623L33.2435 24.4176H43.733ZM33.2435 22.5377L38.4882 17.2929L43.733 22.5377H33.2435ZM45.0629 25.7475V36.237L39.8182 30.9923L45.0629 25.7475ZM43.733 37.5619H33.2435L38.4882 32.3172L43.733 37.5619ZM45.0629 40.7668V51.2563L39.8182 46.0115L45.0629 40.7668ZM43.733 39.4418L38.4882 44.6866L33.2435 39.4418H43.733ZM43.733 52.5862H33.2435L38.4882 47.3414L43.733 52.5862ZM43.733 54.4661L38.4882 59.7108L33.2435 54.4661H43.733ZM58.2823 73.6401L46.5579 67.7754L39.8182 61.0358L45.8529 55.0011L58.2823 73.6401ZM45.0629 21.2128L39.8182 15.968L45.0629 10.7233V21.2128ZM38.4882 2.2687L43.733 7.51344H33.2435L38.4882 2.2687ZM43.733 9.39334L38.4882 14.6381L33.2435 9.39334H43.733ZM31.9136 10.7233L37.1583 15.968L31.9136 21.2128V10.7233ZM31.9136 25.7475L37.1583 30.9923L31.9136 36.237V25.7475ZM31.9136 40.7668L37.1583 46.0115L31.9136 51.2563V40.7668ZM17.0743 15.0281L30.0387 9.84332V15.0281H17.0743ZM31.1236 55.0011L37.1633 61.0408L30.4236 67.7804L18.6992 73.6451L31.1236 55.0011ZM30.0387 24.9976V37.5619H4.90493L30.0387 24.9976Z" fill="url(#paint0_linear_944_2312)"/>
<defs>
<linearGradient id="paint0_linear_944_2312" x1="38.4957" y1="6.10352e-05" x2="38.4957" y2="77" gradientUnits="userSpaceOnUse">
<stop stop-color="#3E3838"/>
<stop offset="1" stop-color="#939292"/>
</linearGradient>
</defs>
</svg>
