<svg width="79" height="79" viewBox="0 0 79 79" fill="none" xmlns="http://www.w3.org/2000/svg">
<path d="M26.0879 50.2525C26.2156 50.4887 26.4596 50.6359 26.7268 50.6359H37.3997L31.8464 70.0724C31.7457 70.417 31.9122 70.781 32.2414 70.9321C32.6558 71.1179 33.012 70.8856 33.1514 70.6765L50.6051 44.494C50.7523 44.2694 50.7678 43.9828 50.6439 43.7466C50.5161 43.5103 50.2682 43.3632 50.001 43.3632H39.3282L44.8815 23.9267C44.9822 23.5821 44.8118 23.2181 44.4865 23.067C44.165 22.916 43.7778 23.0283 43.5764 23.3226L26.1227 49.5051C25.9717 49.7297 25.9601 50.0163 26.0879 50.2525ZM42.2016 28.0046L37.663 43.8899C37.601 44.1067 37.6436 44.343 37.783 44.525C37.9186 44.707 38.1354 44.8154 38.3639 44.8154H48.6417L34.5223 65.9907L39.061 50.1054C39.1229 49.8885 39.0803 49.6523 38.9409 49.4703C38.8054 49.2882 38.5885 49.1798 38.3601 49.1798H28.0822L42.2016 28.0046Z" fill="url(#paint0_linear_944_2333)"/>
<path d="M39.7052 0.296334C39.3405 -0.0987779 38.6668 -0.0987779 38.3021 0.296334L0.249779 41.7831C-0.104809 42.1681 -0.0794834 42.7709 0.310563 43.1305C0.695543 43.4851 1.29328 43.4598 1.658 43.0697L3.81085 40.7244V77.0595C3.81085 77.5812 4.23636 78.0118 4.76317 78.0118H73.2593C73.7811 78.0118 74.2117 77.5863 74.2117 77.0595V40.7244L76.3645 43.0697C76.7242 43.4598 77.3219 43.48 77.7119 43.1305C78.0969 42.7759 78.1222 42.1731 77.7727 41.7831L39.7052 0.296334ZM72.2969 76.1071H5.70535V38.6526L39.0011 2.34788L72.2969 38.6475V76.1071Z" fill="url(#paint1_linear_944_2333)"/>
<defs>
<linearGradient id="paint0_linear_944_2333" x1="38.3636" y1="23" x2="38.3636" y2="71" gradientUnits="userSpaceOnUse">
<stop stop-color="#3E3838"/>
<stop offset="1" stop-color="#939292"/>
</linearGradient>
<linearGradient id="paint1_linear_944_2333" x1="39.0094" y1="0" x2="39.0094" y2="78.0118" gradientUnits="userSpaceOnUse">
<stop stop-color="#3E3838"/>
<stop offset="1" stop-color="#939292"/>
</linearGradient>
</defs>
</svg>
