<svg width="34" height="38" viewBox="0 0 34 38" fill="none" xmlns="http://www.w3.org/2000/svg">
<path d="M25.126 18.0891V4.16821C25.126 2.93904 24.1269 1.93911 22.8995 1.93911H18.0653V0.749511C18.0653 0.335191 17.7304 0 17.3164 0H7.80575C7.39177 0 7.05686 0.335191 7.05686 0.749511V1.93911H2.22654C0.999123 1.93911 0 2.93904 0 4.16821V30.0781C0 31.3065 0.999123 32.3064 2.22654 32.3064H15.9339C17.5715 35.2896 20.74 37.3171 24.3743 37.3171C29.6816 37.3171 34 32.9952 34 27.6836C33.9997 22.6262 30.0823 18.4756 25.126 18.0891ZM8.55491 1.49927H16.5678V3.88485H8.55491V1.49927ZM7.80575 5.38411H17.3164C17.7304 5.38411 18.0653 5.04893 18.0653 4.63461V3.43863H19.8638V6.89307H15.3837C14.9698 6.89307 14.6348 7.22826 14.6348 7.64258C14.6348 8.78521 13.7059 9.71494 12.5642 9.71494C11.4189 9.71494 10.4868 8.78521 10.4868 7.64258C10.4868 7.22826 10.1519 6.89307 9.73794 6.89307H5.2586V3.43863H7.05635V4.63461C7.05686 5.04893 7.39177 5.38411 7.80575 5.38411ZM2.22654 30.8074C1.82505 30.8074 1.49804 30.4802 1.49804 30.0784V4.16821C1.49804 3.76563 1.82505 3.43836 2.22654 3.43836H3.76106V7.64232C3.76106 8.05664 4.09598 8.39183 4.50996 8.39183H9.06812C9.414 10.0024 10.8498 11.2137 12.5644 11.2137C14.2752 11.2137 15.709 10.0021 16.0541 8.39183H20.613C21.027 8.39183 21.3619 8.05664 21.3619 7.64232V3.43836H22.8995C23.301 3.43836 23.628 3.76563 23.628 4.16821V18.0889C18.6691 18.4723 14.7491 22.6242 14.7491 27.6838C14.7491 28.7782 14.9412 29.8261 15.2786 30.8074H2.22654ZM24.374 35.8181C19.8927 35.8181 16.2471 32.1688 16.2471 27.6838C16.2471 23.1988 19.8927 19.5504 24.374 19.5504C28.8554 19.5504 32.5017 23.1988 32.5017 27.6838C32.502 32.1688 28.8557 35.8181 24.374 35.8181Z" fill="#191919"/>
<path d="M28.6445 23.325C28.2781 23.1096 27.8116 23.2345 27.5969 23.6055L23.3239 31.0619L20.4163 27.6665C20.1381 27.3411 19.6527 27.3083 19.3364 27.5904C19.0172 27.8726 18.9836 28.3645 19.2616 28.6886L22.8706 32.9032C23.2143 33.3063 23.8468 33.2437 24.1099 32.7846L28.9207 24.3905C29.1327 24.0185 29.0094 23.5416 28.6445 23.325Z" fill="#191919"/>
<path d="M4.87839 15.7561H19.1704C19.5751 15.7561 19.9025 15.3852 19.9025 14.9268C19.9025 14.4684 19.5751 14.0975 19.1704 14.0975H4.87839C4.47372 14.0975 4.14636 14.4684 4.14636 14.9268C4.14611 15.3852 4.47372 15.7561 4.87839 15.7561Z" fill="#191919"/>
<path d="M13.3291 19.0732H4.91487C4.49004 19.0732 4.14636 19.444 4.14636 19.9025C4.14636 20.3609 4.49004 20.7317 4.91487 20.7317H13.3291C13.7539 20.7317 14.0976 20.3609 14.0976 19.9025C14.0976 19.4443 13.7539 19.0732 13.3291 19.0732Z" fill="#191919"/>
<path d="M10.8318 24.878H4.92431C4.49426 24.878 4.14636 25.2488 4.14636 25.7073C4.14636 26.1657 4.49426 26.5365 4.92431 26.5365H10.8318C11.2619 26.5365 11.6098 26.1657 11.6098 25.7073C11.6098 25.2488 11.2619 24.878 10.8318 24.878Z" fill="#191919"/>
</svg>
